<mxfile host="app.diagrams.net" modified="2022-03-15T12:11:16.149Z" agent="5.0 (Macintosh; Intel Mac OS X 10_15_7) AppleWebKit/605.1.15 (KHTML, like Gecko) Version/15.0 Safari/605.1.15" etag="nLqQ4y8kcuqND1S23Jtd" version="16.5.5" type="github">
  <diagram id="prtHgNgQTEPvFCAcTncT" name="Page-1">
    <mxGraphModel dx="1724" dy="2223" grid="1" gridSize="10" guides="1" tooltips="1" connect="1" arrows="1" fold="1" page="1" pageScale="1" pageWidth="827" pageHeight="1169" math="0" shadow="0">
      <root>
        <mxCell id="0" />
        <mxCell id="1" parent="0" />
        <mxCell id="6QA2S5ETa-m4IwQLnoBM-4" value="&lt;font style=&quot;font-size: 21px&quot;&gt;0&lt;/font&gt;" style="rounded=0;whiteSpace=wrap;html=1;" vertex="1" parent="1">
          <mxGeometry x="40" y="140" width="120" height="60" as="geometry" />
        </mxCell>
        <mxCell id="6QA2S5ETa-m4IwQLnoBM-5" value="&lt;span style=&quot;font-size: 21px&quot;&gt;14,5&lt;/span&gt;" style="rounded=0;whiteSpace=wrap;html=1;" vertex="1" parent="1">
          <mxGeometry x="160" y="140" width="120" height="60" as="geometry" />
        </mxCell>
        <mxCell id="6QA2S5ETa-m4IwQLnoBM-33" value="" style="edgeStyle=orthogonalEdgeStyle;rounded=0;orthogonalLoop=1;jettySize=auto;html=1;fontSize=17;" edge="1" parent="1" source="6QA2S5ETa-m4IwQLnoBM-6" target="6QA2S5ETa-m4IwQLnoBM-11">
          <mxGeometry relative="1" as="geometry" />
        </mxCell>
        <mxCell id="6QA2S5ETa-m4IwQLnoBM-6" value="&lt;span style=&quot;font-size: 21px&quot;&gt;14,5&lt;/span&gt;" style="rounded=0;whiteSpace=wrap;html=1;" vertex="1" parent="1">
          <mxGeometry x="280" y="140" width="120" height="60" as="geometry" />
        </mxCell>
        <mxCell id="6QA2S5ETa-m4IwQLnoBM-106" style="edgeStyle=orthogonalEdgeStyle;rounded=0;orthogonalLoop=1;jettySize=auto;html=1;entryX=0;entryY=0.5;entryDx=0;entryDy=0;fontSize=21;" edge="1" parent="1" source="6QA2S5ETa-m4IwQLnoBM-7" target="6QA2S5ETa-m4IwQLnoBM-15">
          <mxGeometry relative="1" as="geometry" />
        </mxCell>
        <mxCell id="6QA2S5ETa-m4IwQLnoBM-107" style="edgeStyle=orthogonalEdgeStyle;rounded=0;orthogonalLoop=1;jettySize=auto;html=1;exitX=1;exitY=0.5;exitDx=0;exitDy=0;entryX=0;entryY=0.5;entryDx=0;entryDy=0;fontSize=21;" edge="1" parent="1" source="6QA2S5ETa-m4IwQLnoBM-7" target="6QA2S5ETa-m4IwQLnoBM-58">
          <mxGeometry relative="1" as="geometry">
            <Array as="points">
              <mxPoint x="440" y="230" />
              <mxPoint x="440" y="-10" />
            </Array>
          </mxGeometry>
        </mxCell>
        <mxCell id="6QA2S5ETa-m4IwQLnoBM-108" style="edgeStyle=orthogonalEdgeStyle;rounded=0;orthogonalLoop=1;jettySize=auto;html=1;exitX=1;exitY=0.5;exitDx=0;exitDy=0;entryX=0;entryY=0.5;entryDx=0;entryDy=0;fontSize=21;" edge="1" parent="1" source="6QA2S5ETa-m4IwQLnoBM-7" target="6QA2S5ETa-m4IwQLnoBM-22">
          <mxGeometry relative="1" as="geometry" />
        </mxCell>
        <mxCell id="6QA2S5ETa-m4IwQLnoBM-7" value="&lt;font style=&quot;font-size: 21px&quot;&gt;Research af projektets kravspecifikationer&lt;/font&gt;" style="rounded=0;whiteSpace=wrap;html=1;fillColor=#F19C99;" vertex="1" parent="1">
          <mxGeometry x="40" y="200" width="360" height="60" as="geometry" />
        </mxCell>
        <mxCell id="6QA2S5ETa-m4IwQLnoBM-9" value="" style="rounded=0;whiteSpace=wrap;html=1;" vertex="1" parent="1">
          <mxGeometry x="40" y="260" width="120" height="60" as="geometry" />
        </mxCell>
        <mxCell id="6QA2S5ETa-m4IwQLnoBM-10" value="" style="rounded=0;whiteSpace=wrap;html=1;" vertex="1" parent="1">
          <mxGeometry x="160" y="260" width="120" height="60" as="geometry" />
        </mxCell>
        <mxCell id="6QA2S5ETa-m4IwQLnoBM-11" value="" style="rounded=0;whiteSpace=wrap;html=1;" vertex="1" parent="1">
          <mxGeometry x="280" y="260" width="120" height="60" as="geometry" />
        </mxCell>
        <mxCell id="6QA2S5ETa-m4IwQLnoBM-12" value="&lt;span style=&quot;font-size: 21px&quot;&gt;14,5&lt;/span&gt;" style="rounded=0;whiteSpace=wrap;html=1;" vertex="1" parent="1">
          <mxGeometry x="480" y="140" width="120" height="60" as="geometry" />
        </mxCell>
        <mxCell id="6QA2S5ETa-m4IwQLnoBM-13" value="&lt;span style=&quot;font-size: 21px&quot;&gt;1,5&lt;/span&gt;" style="rounded=0;whiteSpace=wrap;html=1;" vertex="1" parent="1">
          <mxGeometry x="600" y="140" width="120" height="60" as="geometry" />
        </mxCell>
        <mxCell id="6QA2S5ETa-m4IwQLnoBM-14" value="&lt;span style=&quot;font-size: 21px&quot;&gt;16&lt;/span&gt;" style="rounded=0;whiteSpace=wrap;html=1;" vertex="1" parent="1">
          <mxGeometry x="720" y="140" width="120" height="60" as="geometry" />
        </mxCell>
        <mxCell id="6QA2S5ETa-m4IwQLnoBM-109" style="edgeStyle=orthogonalEdgeStyle;rounded=0;orthogonalLoop=1;jettySize=auto;html=1;entryX=0;entryY=0.5;entryDx=0;entryDy=0;fontSize=21;" edge="1" parent="1" source="6QA2S5ETa-m4IwQLnoBM-15" target="6QA2S5ETa-m4IwQLnoBM-29">
          <mxGeometry relative="1" as="geometry" />
        </mxCell>
        <mxCell id="6QA2S5ETa-m4IwQLnoBM-15" value="&lt;font style=&quot;font-size: 21px&quot;&gt;Tildeling af opgaver internt i projektteamet&lt;/font&gt;" style="rounded=0;whiteSpace=wrap;html=1;fillColor=#F19C99;" vertex="1" parent="1">
          <mxGeometry x="480" y="200" width="360" height="60" as="geometry" />
        </mxCell>
        <mxCell id="6QA2S5ETa-m4IwQLnoBM-16" value="" style="rounded=0;whiteSpace=wrap;html=1;" vertex="1" parent="1">
          <mxGeometry x="480" y="260" width="120" height="60" as="geometry" />
        </mxCell>
        <mxCell id="6QA2S5ETa-m4IwQLnoBM-17" value="" style="rounded=0;whiteSpace=wrap;html=1;" vertex="1" parent="1">
          <mxGeometry x="600" y="260" width="120" height="60" as="geometry" />
        </mxCell>
        <mxCell id="6QA2S5ETa-m4IwQLnoBM-18" value="" style="rounded=0;whiteSpace=wrap;html=1;" vertex="1" parent="1">
          <mxGeometry x="720" y="260" width="120" height="60" as="geometry" />
        </mxCell>
        <mxCell id="6QA2S5ETa-m4IwQLnoBM-19" value="&lt;span style=&quot;font-size: 21px&quot;&gt;14,5&lt;/span&gt;" style="rounded=0;whiteSpace=wrap;html=1;" vertex="1" parent="1">
          <mxGeometry x="480" y="380" width="120" height="60" as="geometry" />
        </mxCell>
        <mxCell id="6QA2S5ETa-m4IwQLnoBM-20" value="&lt;span style=&quot;font-size: 21px&quot;&gt;12,6&lt;/span&gt;" style="rounded=0;whiteSpace=wrap;html=1;" vertex="1" parent="1">
          <mxGeometry x="600" y="380" width="120" height="60" as="geometry" />
        </mxCell>
        <mxCell id="6QA2S5ETa-m4IwQLnoBM-21" value="&lt;span style=&quot;font-size: 21px&quot;&gt;27,1&lt;/span&gt;" style="rounded=0;whiteSpace=wrap;html=1;" vertex="1" parent="1">
          <mxGeometry x="720" y="380" width="120" height="60" as="geometry" />
        </mxCell>
        <mxCell id="6QA2S5ETa-m4IwQLnoBM-22" value="&lt;font style=&quot;font-size: 21px&quot;&gt;BogfÃ¸ring&lt;/font&gt;" style="rounded=0;whiteSpace=wrap;html=1;" vertex="1" parent="1">
          <mxGeometry x="480" y="440" width="360" height="60" as="geometry" />
        </mxCell>
        <mxCell id="6QA2S5ETa-m4IwQLnoBM-23" value="" style="rounded=0;whiteSpace=wrap;html=1;" vertex="1" parent="1">
          <mxGeometry x="480" y="500" width="120" height="60" as="geometry" />
        </mxCell>
        <mxCell id="6QA2S5ETa-m4IwQLnoBM-24" value="" style="rounded=0;whiteSpace=wrap;html=1;" vertex="1" parent="1">
          <mxGeometry x="600" y="500" width="120" height="60" as="geometry" />
        </mxCell>
        <mxCell id="6QA2S5ETa-m4IwQLnoBM-25" value="" style="rounded=0;whiteSpace=wrap;html=1;" vertex="1" parent="1">
          <mxGeometry x="720" y="500" width="120" height="60" as="geometry" />
        </mxCell>
        <mxCell id="6QA2S5ETa-m4IwQLnoBM-26" value="&lt;span style=&quot;font-size: 21px&quot;&gt;16&lt;/span&gt;" style="rounded=0;whiteSpace=wrap;html=1;" vertex="1" parent="1">
          <mxGeometry x="910" y="140" width="120" height="60" as="geometry" />
        </mxCell>
        <mxCell id="6QA2S5ETa-m4IwQLnoBM-27" value="&lt;span style=&quot;font-size: 21px&quot;&gt;91,6&lt;/span&gt;" style="rounded=0;whiteSpace=wrap;html=1;" vertex="1" parent="1">
          <mxGeometry x="1030" y="140" width="120" height="60" as="geometry" />
        </mxCell>
        <mxCell id="6QA2S5ETa-m4IwQLnoBM-28" value="&lt;span style=&quot;font-size: 21px&quot;&gt;107,6&lt;/span&gt;" style="rounded=0;whiteSpace=wrap;html=1;" vertex="1" parent="1">
          <mxGeometry x="1150" y="140" width="120" height="60" as="geometry" />
        </mxCell>
        <mxCell id="6QA2S5ETa-m4IwQLnoBM-110" style="edgeStyle=orthogonalEdgeStyle;rounded=0;orthogonalLoop=1;jettySize=auto;html=1;exitX=1;exitY=0.5;exitDx=0;exitDy=0;entryX=0;entryY=0.5;entryDx=0;entryDy=0;fontSize=21;" edge="1" parent="1" source="6QA2S5ETa-m4IwQLnoBM-29" target="6QA2S5ETa-m4IwQLnoBM-87">
          <mxGeometry relative="1" as="geometry" />
        </mxCell>
        <mxCell id="6QA2S5ETa-m4IwQLnoBM-29" value="&lt;font style=&quot;font-size: 21px&quot;&gt;Programmering af backend&lt;/font&gt;" style="rounded=0;whiteSpace=wrap;html=1;fillColor=#F19C99;" vertex="1" parent="1">
          <mxGeometry x="910" y="200" width="360" height="60" as="geometry" />
        </mxCell>
        <mxCell id="6QA2S5ETa-m4IwQLnoBM-30" value="" style="rounded=0;whiteSpace=wrap;html=1;" vertex="1" parent="1">
          <mxGeometry x="910" y="260" width="120" height="60" as="geometry" />
        </mxCell>
        <mxCell id="6QA2S5ETa-m4IwQLnoBM-31" value="" style="rounded=0;whiteSpace=wrap;html=1;" vertex="1" parent="1">
          <mxGeometry x="1030" y="260" width="120" height="60" as="geometry" />
        </mxCell>
        <mxCell id="6QA2S5ETa-m4IwQLnoBM-32" value="" style="rounded=0;whiteSpace=wrap;html=1;" vertex="1" parent="1">
          <mxGeometry x="1150" y="260" width="120" height="60" as="geometry" />
        </mxCell>
        <mxCell id="6QA2S5ETa-m4IwQLnoBM-34" value="&lt;span style=&quot;font-size: 21px&quot;&gt;160,9&lt;/span&gt;" style="rounded=0;whiteSpace=wrap;html=1;" vertex="1" parent="1">
          <mxGeometry x="1770" y="140" width="120" height="60" as="geometry" />
        </mxCell>
        <mxCell id="6QA2S5ETa-m4IwQLnoBM-35" value="&lt;span style=&quot;font-size: 21px&quot;&gt;27,5&lt;/span&gt;" style="rounded=0;whiteSpace=wrap;html=1;" vertex="1" parent="1">
          <mxGeometry x="1890" y="140" width="120" height="60" as="geometry" />
        </mxCell>
        <mxCell id="6QA2S5ETa-m4IwQLnoBM-36" value="&lt;span style=&quot;font-size: 21px&quot;&gt;188,4&lt;/span&gt;" style="rounded=0;whiteSpace=wrap;html=1;" vertex="1" parent="1">
          <mxGeometry x="2010" y="140" width="120" height="60" as="geometry" />
        </mxCell>
        <mxCell id="6QA2S5ETa-m4IwQLnoBM-37" value="&lt;font style=&quot;font-size: 21px&quot;&gt;Test af kode&lt;/font&gt;" style="rounded=0;whiteSpace=wrap;html=1;fillColor=#F19C99;" vertex="1" parent="1">
          <mxGeometry x="1770" y="200" width="360" height="60" as="geometry" />
        </mxCell>
        <mxCell id="6QA2S5ETa-m4IwQLnoBM-38" value="" style="rounded=0;whiteSpace=wrap;html=1;" vertex="1" parent="1">
          <mxGeometry x="1770" y="260" width="120" height="60" as="geometry" />
        </mxCell>
        <mxCell id="6QA2S5ETa-m4IwQLnoBM-39" value="" style="rounded=0;whiteSpace=wrap;html=1;" vertex="1" parent="1">
          <mxGeometry x="1890" y="260" width="120" height="60" as="geometry" />
        </mxCell>
        <mxCell id="6QA2S5ETa-m4IwQLnoBM-40" value="" style="rounded=0;whiteSpace=wrap;html=1;" vertex="1" parent="1">
          <mxGeometry x="2010" y="260" width="120" height="60" as="geometry" />
        </mxCell>
        <mxCell id="6QA2S5ETa-m4IwQLnoBM-41" value="" style="rounded=0;whiteSpace=wrap;html=1;" vertex="1" parent="1">
          <mxGeometry x="2200" y="140" width="120" height="60" as="geometry" />
        </mxCell>
        <mxCell id="6QA2S5ETa-m4IwQLnoBM-42" value="" style="rounded=0;whiteSpace=wrap;html=1;" vertex="1" parent="1">
          <mxGeometry x="2320" y="140" width="120" height="60" as="geometry" />
        </mxCell>
        <mxCell id="6QA2S5ETa-m4IwQLnoBM-43" value="" style="rounded=0;whiteSpace=wrap;html=1;" vertex="1" parent="1">
          <mxGeometry x="2440" y="140" width="120" height="60" as="geometry" />
        </mxCell>
        <mxCell id="6QA2S5ETa-m4IwQLnoBM-44" value="&lt;font style=&quot;font-size: 21px&quot;&gt;Revidering af program&lt;/font&gt;" style="rounded=0;whiteSpace=wrap;html=1;fillColor=#F19C99;" vertex="1" parent="1">
          <mxGeometry x="2200" y="200" width="360" height="60" as="geometry" />
        </mxCell>
        <mxCell id="6QA2S5ETa-m4IwQLnoBM-45" value="" style="rounded=0;whiteSpace=wrap;html=1;" vertex="1" parent="1">
          <mxGeometry x="2200" y="260" width="120" height="60" as="geometry" />
        </mxCell>
        <mxCell id="6QA2S5ETa-m4IwQLnoBM-46" value="" style="rounded=0;whiteSpace=wrap;html=1;" vertex="1" parent="1">
          <mxGeometry x="2320" y="260" width="120" height="60" as="geometry" />
        </mxCell>
        <mxCell id="6QA2S5ETa-m4IwQLnoBM-47" value="" style="rounded=0;whiteSpace=wrap;html=1;" vertex="1" parent="1">
          <mxGeometry x="2440" y="260" width="120" height="60" as="geometry" />
        </mxCell>
        <mxCell id="6QA2S5ETa-m4IwQLnoBM-48" value="" style="rounded=0;whiteSpace=wrap;html=1;" vertex="1" parent="1">
          <mxGeometry x="2640" y="140" width="120" height="60" as="geometry" />
        </mxCell>
        <mxCell id="6QA2S5ETa-m4IwQLnoBM-49" value="" style="rounded=0;whiteSpace=wrap;html=1;" vertex="1" parent="1">
          <mxGeometry x="2760" y="140" width="120" height="60" as="geometry" />
        </mxCell>
        <mxCell id="6QA2S5ETa-m4IwQLnoBM-50" value="" style="rounded=0;whiteSpace=wrap;html=1;" vertex="1" parent="1">
          <mxGeometry x="2880" y="140" width="120" height="60" as="geometry" />
        </mxCell>
        <mxCell id="6QA2S5ETa-m4IwQLnoBM-51" value="&lt;font style=&quot;font-size: 21px&quot;&gt;Implementering&lt;/font&gt;" style="rounded=0;whiteSpace=wrap;html=1;fillColor=#F19C99;" vertex="1" parent="1">
          <mxGeometry x="2640" y="200" width="360" height="60" as="geometry" />
        </mxCell>
        <mxCell id="6QA2S5ETa-m4IwQLnoBM-52" value="" style="rounded=0;whiteSpace=wrap;html=1;" vertex="1" parent="1">
          <mxGeometry x="2640" y="260" width="120" height="60" as="geometry" />
        </mxCell>
        <mxCell id="6QA2S5ETa-m4IwQLnoBM-53" value="" style="rounded=0;whiteSpace=wrap;html=1;" vertex="1" parent="1">
          <mxGeometry x="2760" y="260" width="120" height="60" as="geometry" />
        </mxCell>
        <mxCell id="6QA2S5ETa-m4IwQLnoBM-54" value="" style="rounded=0;whiteSpace=wrap;html=1;" vertex="1" parent="1">
          <mxGeometry x="2880" y="260" width="120" height="60" as="geometry" />
        </mxCell>
        <mxCell id="6QA2S5ETa-m4IwQLnoBM-55" value="&lt;span style=&quot;font-size: 21px&quot;&gt;14,5&lt;/span&gt;" style="rounded=0;whiteSpace=wrap;html=1;" vertex="1" parent="1">
          <mxGeometry x="480" y="-100" width="120" height="60" as="geometry" />
        </mxCell>
        <mxCell id="6QA2S5ETa-m4IwQLnoBM-56" value="&lt;span style=&quot;font-size: 21px&quot;&gt;50,83&lt;/span&gt;" style="rounded=0;whiteSpace=wrap;html=1;" vertex="1" parent="1">
          <mxGeometry x="600" y="-100" width="120" height="60" as="geometry" />
        </mxCell>
        <mxCell id="6QA2S5ETa-m4IwQLnoBM-57" value="&lt;span style=&quot;font-size: 21px&quot;&gt;65,33&lt;/span&gt;" style="rounded=0;whiteSpace=wrap;html=1;" vertex="1" parent="1">
          <mxGeometry x="720" y="-100" width="120" height="60" as="geometry" />
        </mxCell>
        <mxCell id="6QA2S5ETa-m4IwQLnoBM-105" style="edgeStyle=orthogonalEdgeStyle;rounded=0;orthogonalLoop=1;jettySize=auto;html=1;entryX=0;entryY=0.5;entryDx=0;entryDy=0;fontSize=21;" edge="1" parent="1" source="6QA2S5ETa-m4IwQLnoBM-58" target="6QA2S5ETa-m4IwQLnoBM-94">
          <mxGeometry relative="1" as="geometry" />
        </mxCell>
        <mxCell id="6QA2S5ETa-m4IwQLnoBM-58" value="&lt;font style=&quot;font-size: 21px&quot;&gt;Rapportskrivning&lt;/font&gt;" style="rounded=0;whiteSpace=wrap;html=1;" vertex="1" parent="1">
          <mxGeometry x="480" y="-40" width="360" height="60" as="geometry" />
        </mxCell>
        <mxCell id="6QA2S5ETa-m4IwQLnoBM-59" value="" style="rounded=0;whiteSpace=wrap;html=1;" vertex="1" parent="1">
          <mxGeometry x="480" y="20" width="120" height="60" as="geometry" />
        </mxCell>
        <mxCell id="6QA2S5ETa-m4IwQLnoBM-60" value="" style="rounded=0;whiteSpace=wrap;html=1;" vertex="1" parent="1">
          <mxGeometry x="600" y="20" width="120" height="60" as="geometry" />
        </mxCell>
        <mxCell id="6QA2S5ETa-m4IwQLnoBM-61" value="" style="rounded=0;whiteSpace=wrap;html=1;" vertex="1" parent="1">
          <mxGeometry x="720" y="20" width="120" height="60" as="geometry" />
        </mxCell>
        <mxCell id="6QA2S5ETa-m4IwQLnoBM-84" value="&lt;span style=&quot;font-size: 21px&quot;&gt;107,6&lt;/span&gt;" style="rounded=0;whiteSpace=wrap;html=1;" vertex="1" parent="1">
          <mxGeometry x="1340" y="140" width="120" height="60" as="geometry" />
        </mxCell>
        <mxCell id="6QA2S5ETa-m4IwQLnoBM-85" value="&lt;span style=&quot;font-size: 21px&quot;&gt;53,3&lt;/span&gt;" style="rounded=0;whiteSpace=wrap;html=1;" vertex="1" parent="1">
          <mxGeometry x="1460" y="140" width="120" height="60" as="geometry" />
        </mxCell>
        <mxCell id="6QA2S5ETa-m4IwQLnoBM-86" value="&lt;span style=&quot;font-size: 21px&quot;&gt;160,9&lt;/span&gt;" style="rounded=0;whiteSpace=wrap;html=1;" vertex="1" parent="1">
          <mxGeometry x="1580" y="140" width="120" height="60" as="geometry" />
        </mxCell>
        <mxCell id="6QA2S5ETa-m4IwQLnoBM-87" value="&lt;font style=&quot;font-size: 21px&quot;&gt;Design af UI&lt;/font&gt;" style="rounded=0;whiteSpace=wrap;html=1;fillColor=#F19C99;" vertex="1" parent="1">
          <mxGeometry x="1340" y="200" width="360" height="60" as="geometry" />
        </mxCell>
        <mxCell id="6QA2S5ETa-m4IwQLnoBM-88" value="" style="rounded=0;whiteSpace=wrap;html=1;" vertex="1" parent="1">
          <mxGeometry x="1340" y="260" width="120" height="60" as="geometry" />
        </mxCell>
        <mxCell id="6QA2S5ETa-m4IwQLnoBM-89" value="" style="rounded=0;whiteSpace=wrap;html=1;" vertex="1" parent="1">
          <mxGeometry x="1460" y="260" width="120" height="60" as="geometry" />
        </mxCell>
        <mxCell id="6QA2S5ETa-m4IwQLnoBM-90" value="" style="rounded=0;whiteSpace=wrap;html=1;" vertex="1" parent="1">
          <mxGeometry x="1580" y="260" width="120" height="60" as="geometry" />
        </mxCell>
        <mxCell id="6QA2S5ETa-m4IwQLnoBM-91" value="&lt;span style=&quot;font-size: 21px&quot;&gt;65,33&lt;/span&gt;" style="rounded=0;whiteSpace=wrap;html=1;" vertex="1" parent="1">
          <mxGeometry x="910" y="-100" width="120" height="60" as="geometry" />
        </mxCell>
        <mxCell id="6QA2S5ETa-m4IwQLnoBM-92" value="&lt;span style=&quot;font-size: 21px&quot;&gt;19,5&lt;/span&gt;" style="rounded=0;whiteSpace=wrap;html=1;" vertex="1" parent="1">
          <mxGeometry x="1030" y="-100" width="120" height="60" as="geometry" />
        </mxCell>
        <mxCell id="6QA2S5ETa-m4IwQLnoBM-93" value="&lt;span style=&quot;font-size: 21px&quot;&gt;84,83&lt;/span&gt;" style="rounded=0;whiteSpace=wrap;html=1;" vertex="1" parent="1">
          <mxGeometry x="1150" y="-100" width="120" height="60" as="geometry" />
        </mxCell>
        <mxCell id="6QA2S5ETa-m4IwQLnoBM-94" value="&lt;font style=&quot;font-size: 21px&quot;&gt;KorrekturlÃ¦sning&lt;/font&gt;" style="rounded=0;whiteSpace=wrap;html=1;" vertex="1" parent="1">
          <mxGeometry x="910" y="-40" width="360" height="60" as="geometry" />
        </mxCell>
        <mxCell id="6QA2S5ETa-m4IwQLnoBM-95" value="" style="rounded=0;whiteSpace=wrap;html=1;" vertex="1" parent="1">
          <mxGeometry x="910" y="20" width="120" height="60" as="geometry" />
        </mxCell>
        <mxCell id="6QA2S5ETa-m4IwQLnoBM-96" value="" style="rounded=0;whiteSpace=wrap;html=1;" vertex="1" parent="1">
          <mxGeometry x="1030" y="20" width="120" height="60" as="geometry" />
        </mxCell>
        <mxCell id="6QA2S5ETa-m4IwQLnoBM-97" value="" style="rounded=0;whiteSpace=wrap;html=1;" vertex="1" parent="1">
          <mxGeometry x="1150" y="20" width="120" height="60" as="geometry" />
        </mxCell>
      </root>
    </mxGraphModel>
  </diagram>
</mxfile>
